<svg xmlns:xlink="http://www.w3.org/1999/xlink" xmlns="http://www.w3.org/2000/svg" x="0" y="0" width="60" height="61.389866579356635" filtersec="colorsb4794721573" class="image-svg-svg primary" style="overflow: visible;" fill="#333333"><svg xmlns="http://www.w3.org/2000/svg" viewBox="0 0 149.31044006347656 152.76939392089844" fill="#333333"><path d="M80.76 121.88c0 9.52-.05 19.05 0 28.57 0 1.86-.56 2.4-2.36 2.31-2.6-.14-5.22-.13-7.83 0-1.63.07-2.11-.51-2.09-2.1.07-6.61 0-13.21 0-19.82 0-12.37 0-24.74-.07-37.1 0-2.16.65-2.81 2.74-2.68a62.49 62.49 0 0 0 7.37 0c1.74-.09 2.22.54 2.21 2.24-.07 9.52 0 19 0 28.58z" fill="#2A78B4"></path><path d="M98 46h26.54c1.65 0 2.36.37 2.27 2.17-.14 2.69-.1 5.38 0 8.07 0 1.42-.29 2.06-1.9 2.06q-27.23-.08-54.46 0c-1.51 0-2-.53-2-2 .09-2.69.13-5.38 0-8.07-.08-1.8.7-2.2 2.32-2.19C79.81 46 88.89 46 98 46z" fill="#EA5E37"></path><path d="M45.06 108.72V93.06c0-1.49.38-2.08 1.93-2 3.15.1 6.3.1 9.45 0 1.41 0 1.84.47 1.84 1.87q-.09 16 0 32c0 1.42-.47 1.88-1.87 1.85q-4.61-.12-9.21 0c-1.63 0-2.12-.62-2.1-2.19.07-5.3 0-10.6 0-15.9z" fill="#2A78B4"></path><path d="M104.24 86.35v15.68c0 1.67-.41 2.32-2.2 2.22-3-.16-6-.11-9 0-1.47 0-2.06-.38-2-1.92q.07-16 0-32.06c0-1.29.42-1.77 1.73-1.75 3.15.06 6.31.08 9.45 0 1.7-.06 2.08.69 2.06 2.21-.07 5.22 0 10.45 0 15.68z" fill="#3DB04E"></path><path d="M62.88 81.66H46.97c-1.39 0-1.91-.37-1.87-1.82.1-3.23.1-6.46 0-9.68 0-1.36.53-1.69 1.78-1.68h32.06c1.4 0 1.88.44 1.85 1.85-.09 3.15-.11 6.31 0 9.46.07 1.64-.65 1.89-2 1.88-5.3-.05-10.61-.02-15.91-.01z" fill="#8F2C8C"></path><path d="M58.26 40.65c0 5.15-.06 10.31 0 15.46 0 1.57-.4 2.21-2 2.15-3.07-.1-6.15-.07-9.22 0-1.33 0-1.92-.3-1.91-1.8q.09-15.91 0-31.84c0-1.64.5-2.13 2.11-2.06 2.92.12 5.85.11 8.77 0 1.63-.06 2.32.36 2.28 2.17-.12 5.31-.05 10.61-.05 15.92z" fill="#2A78B4"></path><path d="M22.59 86.36c0-5.23.05-10.46 0-15.68 0-1.55.34-2.2 2-2.14 3.15.13 6.3.08 9.45 0 1.19 0 1.63.34 1.62 1.56v32.51c0 1-.2 1.57-1.4 1.54-3.38-.07-6.77-.08-10.15 0-1.51 0-1.54-.8-1.53-1.9.02-5.25.01-10.59.01-15.89z" fill="#303E8F"></path><path d="M131.37 81.5c-5.15 0-10.31-.07-15.46 0-1.82 0-2.21-.75-2.17-2.33.07-2.85.08-5.69 0-8.54 0-1.47.42-2 2-2h31.83c1.11 0 1.76.28 1.74 1.53-.06 3.15-.1 6.3-.1 9.44 0 1.48-.6 2-2.1 2-5.22-.08-10.45 0-15.68 0z" fill="#EA5E37"></path><path d="M80.73 18v15.67c0 1.61-.5 2.16-2.11 2.1-2.68-.11-5.38-.09-8.06 0-1.44 0-2-.35-2-1.93.06-10.67 0-21.35 0-32C68.54.45 69 0 70.3 0c2.84.05 5.69.08 8.53 0 1.54 0 2 .59 1.94 2.05-.07 5.3 0 10.6 0 15.9z" fill="#2A78B4"></path><path d="M13.07 75.69c-.13 1.54.88 4.19-.37 5.51s-3.93.34-6 .44c-1.68.07-3.38 0-5.07 0C.45 81.72 0 81.29 0 80.09q.08-5 0-9.92c0-1.13.28-1.7 1.55-1.68q4.95.09 9.92 0c1.2 0 1.65.4 1.61 1.6-.08 1.7-.01 3.39-.01 5.6z" fill="#8F2C8C"></path><path d="M126.78 98.06c-.26 1.72.94 4.41-.53 5.79s-4 .31-6 .39c-1.68.06-3.37 0-5.06 0-1.23.06-1.6-.46-1.59-1.62v-9.89c0-1.27.43-1.78 1.73-1.76 3.3.06 6.6 0 9.9 0 1.17 0 1.66.42 1.62 1.62-.12 1.71-.07 3.41-.07 5.47z" fill="#3DB04E"></path><path d="M97.22 35.62c-1.71-.17-4.38.88-5.66-.39s-.32-3.94-.41-6c-.07-1.61.09-3.24-.05-4.84s.49-1.81 1.84-1.78c3.16.08 6.31.1 9.46 0 1.5-.06 1.83.58 1.8 1.89-.07 3.15-.12 6.31 0 9.46 0 1.36-.48 1.74-1.74 1.68-1.67-.08-3.28-.02-5.24-.02z" fill="#303E8F"></path><path d="M91 120.16v-2.07c0-4.55 0-4.55 4.65-4.55 2.22 0 4.45.06 6.67 0 1.33 0 2 .3 1.93 1.79-.09 3.22-.07 6.44 0 9.66 0 1.46-.6 1.84-1.93 1.81-3.22-.06-6.44-.08-9.66 0-1.35 0-1.74-.52-1.68-1.77.07-1.64.02-3.25.02-4.87z" fill="#EA5E37"></path><path d="M29.39 46.17c2 0 4.61-.77 5.79.2 1.42 1.17.45 3.9.48 6 .07 5.92 0 5.92-6 5.92h-5.77c-1 0-1.37-.36-1.35-1.36v-9.45c0-1.13.48-1.47 1.53-1.44h5.3z" fill="#8F2C8C"></path></svg></svg>