<?xml version="1.0" encoding="UTF-8" standalone="no"?>
<svg
   data-v-6805eed4=""
   version="1.0"
   width="380"
   height="279"
   viewBox="0 0 340.000000 250.000000"
   preserveAspectRatio="xMidYMid meet"
   color-interpolation-filters="sRGB"
   style="margin: auto;"
   id="svg23"
   sodipodi:docname="reduxphotos_logo.svg"
   inkscape:version="1.3 (0e150ed6c4, 2023-07-21)"
   xmlns:inkscape="http://www.inkscape.org/namespaces/inkscape"
   xmlns:sodipodi="http://sodipodi.sourceforge.net/DTD/sodipodi-0.dtd"
   xmlns:xlink="http://www.w3.org/1999/xlink"
   xmlns="http://www.w3.org/2000/svg"
   xmlns:svg="http://www.w3.org/2000/svg">
  <sodipodi:namedview
     id="namedview23"
     pagecolor="#ffffff"
     bordercolor="#000000"
     borderopacity="0.25"
     inkscape:showpageshadow="2"
     inkscape:pageopacity="0.0"
     inkscape:pagecheckerboard="0"
     inkscape:deskcolor="#d1d1d1"
     inkscape:zoom="2.8960573"
     inkscape:cx="190.08601"
     inkscape:cy="118.43688"
     inkscape:window-width="2560"
     inkscape:window-height="1011"
     inkscape:window-x="0"
     inkscape:window-y="0"
     inkscape:window-maximized="1"
     inkscape:current-layer="svg23" />
  <g
     data-v-6805eed4=""
     fill="#333333"
     class="icon-text-wrapper icon-svg-group iconsvg"
     transform="matrix(1.836547,0,0,1.8347932,7.3148432,1.7475055)"
     id="g23">
    <g
       class="iconsvg-imagesvg"
       transform="translate(58.690002)"
       fill="#333333"
       id="g16">
      <g
         fill="#333333"
         id="g15">
        <rect
           fill="#333333"
           fill-opacity="0"
           stroke-width="2px"
           x="0"
           y="0"
           width="60"
           height="61.389866"
           class="image-rect"
           id="rect1" />
        <svg
           x="0"
           y="0"
           width="60"
           height="61.389866"
           filtersec="colorsb4794721573"
           class="image-svg-svg primary"
           style="overflow:visible"
           fill="#333333"
           version="1.1"
           id="svg15">
          <svg
             viewBox="0 0 149.31044 152.76939"
             fill="#333333"
             version="1.1"
             id="svg14"
             width="100%"
             height="100%">
            <path
               d="m 80.76,121.88 c 0,9.52 -0.05,19.05 0,28.57 0,1.86 -0.56,2.4 -2.36,2.31 -2.6,-0.14 -5.22,-0.13 -7.83,0 -1.63,0.07 -2.11,-0.51 -2.09,-2.1 0.07,-6.61 0,-13.21 0,-19.82 0,-12.37 0,-24.74 -0.07,-37.1 0,-2.16 0.65,-2.81 2.74,-2.68 a 62.49,62.49 0 0 0 7.37,0 c 1.74,-0.09 2.22,0.54 2.21,2.24 -0.07,9.52 0,19 0,28.58 z"
               fill="#2a78b4"
               id="path1" />
            <path
               d="m 98,46 h 26.54 c 1.65,0 2.36,0.37 2.27,2.17 -0.14,2.69 -0.1,5.38 0,8.07 0,1.42 -0.29,2.06 -1.9,2.06 q -27.23,-0.08 -54.46,0 c -1.51,0 -2,-0.53 -2,-2 0.09,-2.69 0.13,-5.38 0,-8.07 -0.08,-1.8 0.7,-2.2 2.32,-2.19 C 79.81,46 88.89,46 98,46 Z"
               fill="#ea5e37"
               id="path2" />
            <path
               d="M 45.06,108.72 V 93.06 c 0,-1.49 0.38,-2.08 1.93,-2 3.15,0.1 6.3,0.1 9.45,0 1.41,0 1.84,0.47 1.84,1.87 q -0.09,16 0,32 c 0,1.42 -0.47,1.88 -1.87,1.85 q -4.61,-0.12 -9.21,0 c -1.63,0 -2.12,-0.62 -2.1,-2.19 0.07,-5.3 0,-10.6 0,-15.9 z"
               fill="#2a78b4"
               id="path3" />
            <path
               d="m 104.24,86.35 v 15.68 c 0,1.67 -0.41,2.32 -2.2,2.22 -3,-0.16 -6,-0.11 -9,0 -1.47,0 -2.06,-0.38 -2,-1.92 q 0.07,-16 0,-32.06 c 0,-1.29 0.42,-1.77 1.73,-1.75 3.15,0.06 6.31,0.08 9.45,0 1.7,-0.06 2.08,0.69 2.06,2.21 -0.07,5.22 0,10.45 0,15.68 z"
               fill="#3db04e"
               id="path4" />
            <path
               d="M 62.88,81.66 H 46.97 c -1.39,0 -1.91,-0.37 -1.87,-1.82 0.1,-3.23 0.1,-6.46 0,-9.68 0,-1.36 0.53,-1.69 1.78,-1.68 h 32.06 c 1.4,0 1.88,0.44 1.85,1.85 -0.09,3.15 -0.11,6.31 0,9.46 0.07,1.64 -0.65,1.89 -2,1.88 -5.3,-0.05 -10.61,-0.02 -15.91,-0.01 z"
               fill="#8f2c8c"
               id="path5" />
            <path
               d="m 58.26,40.65 c 0,5.15 -0.06,10.31 0,15.46 0,1.57 -0.4,2.21 -2,2.15 -3.07,-0.1 -6.15,-0.07 -9.22,0 -1.33,0 -1.92,-0.3 -1.91,-1.8 q 0.09,-15.91 0,-31.84 c 0,-1.64 0.5,-2.13 2.11,-2.06 2.92,0.12 5.85,0.11 8.77,0 1.63,-0.06 2.32,0.36 2.28,2.17 -0.12,5.31 -0.05,10.61 -0.05,15.92 z"
               fill="#2a78b4"
               id="path6" />
            <path
               d="m 22.59,86.36 c 0,-5.23 0.05,-10.46 0,-15.68 0,-1.55 0.34,-2.2 2,-2.14 3.15,0.13 6.3,0.08 9.45,0 1.19,0 1.63,0.34 1.62,1.56 v 32.51 c 0,1 -0.2,1.57 -1.4,1.54 -3.38,-0.07 -6.77,-0.08 -10.15,0 -1.51,0 -1.54,-0.8 -1.53,-1.9 C 22.6,97 22.59,91.66 22.59,86.36 Z"
               fill="#303e8f"
               id="path7" />
            <path
               d="m 131.37,81.5 c -5.15,0 -10.31,-0.07 -15.46,0 -1.82,0 -2.21,-0.75 -2.17,-2.33 0.07,-2.85 0.08,-5.69 0,-8.54 0,-1.47 0.42,-2 2,-2 h 31.83 c 1.11,0 1.76,0.28 1.74,1.53 -0.06,3.15 -0.1,6.3 -0.1,9.44 0,1.48 -0.6,2 -2.1,2 -5.22,-0.08 -10.45,0 -15.68,0 z"
               fill="#ea5e37"
               id="path8" />
            <path
               d="m 80.73,18 v 15.67 c 0,1.61 -0.5,2.16 -2.11,2.1 -2.68,-0.11 -5.38,-0.09 -8.06,0 -1.44,0 -2,-0.35 -2,-1.93 0.06,-10.67 0,-21.35 0,-32 C 68.54,0.45 69,0 70.3,0 c 2.84,0.05 5.69,0.08 8.53,0 1.54,0 2,0.59 1.94,2.05 -0.07,5.3 0,10.6 0,15.9 z"
               fill="#2a78b4"
               id="path9" />
            <path
               d="m 13.07,75.69 c -0.13,1.54 0.88,4.19 -0.37,5.51 -1.25,1.32 -3.93,0.34 -6,0.44 -1.68,0.07 -3.38,0 -5.07,0 C 0.45,81.72 0,81.29 0,80.09 q 0.08,-5 0,-9.92 c 0,-1.13 0.28,-1.7 1.55,-1.68 q 4.95,0.09 9.92,0 c 1.2,0 1.65,0.4 1.61,1.6 -0.08,1.7 -0.01,3.39 -0.01,5.6 z"
               fill="#8f2c8c"
               id="path10" />
            <path
               d="m 126.78,98.06 c -0.26,1.72 0.94,4.41 -0.53,5.79 -1.47,1.38 -4,0.31 -6,0.39 -1.68,0.06 -3.37,0 -5.06,0 -1.23,0.06 -1.6,-0.46 -1.59,-1.62 v -9.89 c 0,-1.27 0.43,-1.78 1.73,-1.76 3.3,0.06 6.6,0 9.9,0 1.17,0 1.66,0.42 1.62,1.62 -0.12,1.71 -0.07,3.41 -0.07,5.47 z"
               fill="#3db04e"
               id="path11" />
            <path
               d="m 97.22,35.62 c -1.71,-0.17 -4.38,0.88 -5.66,-0.39 -1.28,-1.27 -0.32,-3.94 -0.41,-6 -0.07,-1.61 0.09,-3.24 -0.05,-4.84 -0.14,-1.6 0.49,-1.81 1.84,-1.78 3.16,0.08 6.31,0.1 9.46,0 1.5,-0.06 1.83,0.58 1.8,1.89 -0.07,3.15 -0.12,6.31 0,9.46 0,1.36 -0.48,1.74 -1.74,1.68 -1.67,-0.08 -3.28,-0.02 -5.24,-0.02 z"
               fill="#303e8f"
               id="path12" />
            <path
               d="m 91,120.16 v -2.07 c 0,-4.55 0,-4.55 4.65,-4.55 2.22,0 4.45,0.06 6.67,0 1.33,0 2,0.3 1.93,1.79 -0.09,3.22 -0.07,6.44 0,9.66 0,1.46 -0.6,1.84 -1.93,1.81 -3.22,-0.06 -6.44,-0.08 -9.66,0 -1.35,0 -1.74,-0.52 -1.68,-1.77 0.07,-1.64 0.02,-3.25 0.02,-4.87 z"
               fill="#ea5e37"
               id="path13" />
            <path
               d="m 29.39,46.17 c 2,0 4.61,-0.77 5.79,0.2 1.42,1.17 0.45,3.9 0.48,6 0.07,5.92 0,5.92 -6,5.92 h -5.77 c -1,0 -1.37,-0.36 -1.35,-1.36 v -9.45 c 0,-1.13 0.48,-1.47 1.53,-1.44 h 5.3 z"
               fill="#8f2c8c"
               id="path14" />
          </svg>
        </svg>
        <!---->
      </g>
    </g>
    <g
       transform="translate(0,68.38987)"
       fill="#333333"
       id="g22">
      <g
         data-gra="path-name"
         fill-rule=""
         class="tp-name iconsvg-namesvg"
         fill="#333333"
         id="g21">
        <g
           fill="#333333"
           id="g20">
          <g
             fill="#333333"
             id="g17">
            <path
               d="M 2.04,-20.11 V 0 h 1.71 l 0.03,-14.18 c 0,-2.82 2.18,-4.77 5.22,-4.29 v -1.6 c -2.46,-0.44 -4.5,0.71 -5.32,2.35 l -0.1,-2.39 z m 20.42,14.69 c 0,2.35 -0.72,3.99 -4.36,3.99 -3.72,0 -4.67,-1.94 -4.67,-6 v -2.25 h 10.8 v -2.96 c 0,-5.25 -1.53,-7.53 -6.13,-7.53 -4.3,0 -6.31,2.07 -6.31,7.53 v 5.35 c 0,5.42 2.01,7.39 6.31,7.39 4.05,0 5.89,-1.91 5.89,-5.52 z m -9.03,-5.83 v -1.46 c 0,-4.19 0.98,-6.03 4.67,-6.03 3.95,0 4.63,2.31 4.63,6.13 v 1.36 z M 33.87,0.1 c 2.46,0 3.99,-0.88 4.94,-2.28 L 38.99,0 h 1.49 v -27.67 h -1.7 v 9.27 c -1.09,-1.26 -2.52,-1.77 -4.6,-1.77 -3.95,0 -6.3,1.94 -6.3,6.64 v 6.44 c 0,5.22 1.8,7.19 5.99,7.19 z m -4.29,-7.22 v -6.34 c 0,-3.34 0.92,-5.15 4.6,-5.15 3.68,0 4.63,1.57 4.6,5.35 v 6.58 c 0,3.24 -1.26,5.11 -4.74,5.18 -2.99,0 -4.46,-1.16 -4.46,-5.62 z M 58.1,0 v -19.8 h -1.7 v 13.84 c 0,2.28 -1.19,4.77 -4.77,4.77 -3.58,0 -4.57,-1.33 -4.57,-5.76 V -19.8 h -1.7 v 12.85 c 0,5.14 1.43,7.26 6.1,7.26 2.45,0 4.09,-1.03 5.01,-2.49 L 56.6,0 Z m 4.57,0 2.59,-4.94 2.11,-4.19 1.98,3.98 2.72,5.15 h 1.98 l -5.66,-10.29 5.35,-9.51 h -1.9 l -2.49,4.43 -1.98,3.92 -1.87,-3.82 -2.46,-4.53 h -1.9 l 5.21,9.51 L 60.8,0 Z"
               transform="translate(-2.04,27.67)"
               fill="#333333"
               id="path16" />
          </g>
          <!---->
          <!---->
          <!---->
          <!---->
          <!---->
          <!---->
          <g
             data-gra="path-name-1"
             fill="#333333"
             transform="translate(75.010002)"
             id="g19">
            <g
               fill="#333333"
               id="g18">
              <path
                 d="M 2.25,-20.11 V 6.1 h 4.67 v -7.67 c 0.78,1.33 2.49,1.77 4.12,1.77 4.47,0 6.75,-2.76 6.75,-7.49 v -5.18 c 0,-5.59 -2.66,-7.77 -6.61,-7.77 -2.29,0 -3.96,0.88 -4.74,2.31 L 6.1,-20.11 Z m 7.7,15.99 c -1.87,0 -3.03,-0.92 -3.03,-3.34 v -4.6 c 0,-2.32 0.85,-4.02 3.17,-4.02 1.84,0 3.03,0.95 3.03,3.85 v 4.73 c 0,2.42 -1.16,3.38 -3.17,3.38 z M 37.01,0 v -13.19 c 0,-4.33 -2.01,-7.09 -6.37,-7.09 -1.61,0 -3.21,0.51 -4.23,1.78 v -7.74 H 21.74 V 0 h 4.67 v -12.68 c 0,-2.25 0.99,-3.34 3,-3.34 1.94,0.04 2.93,0.92 2.93,3.38 V 0 Z m 11.38,0.34 c 5.28,0 7.8,-2.42 7.8,-7.84 v -4.84 c 0,-5.41 -2.52,-7.83 -7.8,-7.83 -5.28,0 -7.8,2.55 -7.8,7.83 v 4.84 c 0,5.42 2.52,7.84 7.8,7.84 z m 0,-4.16 c -2.45,0 -3.1,-1.43 -3.1,-3.92 v -4.36 c 0,-2.49 0.65,-3.92 3.1,-3.92 2.45,0 3.1,1.43 3.1,3.92 v 4.36 c 0,2.49 -0.65,3.92 -3.1,3.92 z M 59.7,-7.36 c 0,5.96 2.22,8.01 8.15,7.36 v -4.09 c -3.14,0.38 -3.48,-1.12 -3.48,-3.34 v -8.48 h 3.41 v -4.26 h -3.41 v -3.92 l -4.67,0.51 z m 18.71,7.7 c 5.29,0 7.81,-2.42 7.81,-7.84 v -4.84 c 0,-5.41 -2.52,-7.83 -7.81,-7.83 -5.28,0 -7.8,2.55 -7.8,7.83 v 4.84 c 0,5.42 2.52,7.84 7.8,7.84 z m 0,-4.16 c -2.45,0 -3.1,-1.43 -3.1,-3.92 v -4.36 c 0,-2.49 0.65,-3.92 3.1,-3.92 2.46,0 3.1,1.43 3.1,3.92 v 4.36 c 0,2.49 -0.64,3.92 -3.1,3.92 z m 25.97,-9.98 c 0,-3.61 -2.35,-6.41 -7.29,-6.41 -4.36,0 -7.6,2.01 -7.6,6.54 0,3.96 2.83,5.22 5.76,5.59 2.42,0.31 4.63,0.34 4.63,2.05 0,0.99 -0.95,2.04 -2.83,2.04 -2.25,0 -2.99,-0.81 -3.1,-2.21 h -4.73 c 0,3.88 2.86,6.3 7.63,6.3 4.33,0 7.77,-1.91 7.77,-6.3 0,-3.58 -2.69,-5.18 -5.38,-5.49 -2.7,-0.31 -5.01,0 -5.01,-2.21 0,-1.4 1.09,-2.12 2.89,-2.12 1.5,0 2.69,0.68 2.69,2.22 z"
                 transform="translate(-2.25,27.67)"
                 fill="#333333"
                 id="path17" />
            </g>
          </g>
        </g>
      </g>
      <!---->
    </g>
  </g>
  <defs
     v-gra="od"
     id="defs23">
    <pattern
       id="watermark"
       patternUnits="userSpaceOnUse"
       width="100%"
       height="100%">
      <image
         xlink:href="https://www.logoai.com/img/watermark/LOGOAI-watermark.png"
         x="0"
         y="0"
         width="100%"
         height="100%"
         id="image23" />
    </pattern>
  </defs>
</svg>
